<svg width="480" height="380" viewBox="0 0 480 380" fill="none" xmlns="http://www.w3.org/2000/svg">
  <defs>
    <linearGradient id="grad1" x1="40" y1="60" x2="440" y2="320" gradientUnits="userSpaceOnUse">
      <stop stop-color="#6EE7FF" stop-opacity="0.95"/>
      <stop offset="1" stop-color="#8B5CF6" stop-opacity="0.9"/>
    </linearGradient>
    <linearGradient id="grad2" x1="70" y1="20" x2="360" y2="340" gradientUnits="userSpaceOnUse">
      <stop stop-color="#0EA5E9" stop-opacity="0.2"/>
      <stop offset="1" stop-color="#1E293B" stop-opacity="0"/>
    </linearGradient>
    <filter id="shadow" x="0" y="0" width="480" height="380" filterUnits="userSpaceOnUse" color-interpolation-filters="sRGB">
      <feDropShadow dx="0" dy="20" stdDeviation="24" flood-color="#0EA5E9" flood-opacity="0.25"/>
    </filter>
  </defs>
  <rect x="16" y="16" width="448" height="348" rx="32" fill="#0B1224"/>
  <rect x="32" y="32" width="416" height="316" rx="26" fill="#0F172A" stroke="url(#grad2)"/>
  <circle cx="120" cy="120" r="62" fill="#111827" stroke="url(#grad1)" stroke-width="10" opacity="0.4"/>
  <circle cx="340" cy="110" r="44" fill="#0B1224" stroke="#22D3EE" stroke-width="8" opacity="0.55"/>
  <circle cx="260" cy="250" r="92" fill="#0B1224" stroke="#8B5CF6" stroke-width="12" opacity="0.3"/>
  <g filter="url(#shadow)">
    <rect x="120" y="110" width="240" height="170" rx="24" fill="#0F172A" stroke="#1F2937" stroke-width="2"/>
    <rect x="138" y="132" width="120" height="18" rx="9" fill="#111827" stroke="#1F2937"/>
    <circle cx="150" cy="141" r="6" fill="#22D3EE"/>
    <rect x="138" y="164" width="204" height="18" rx="9" fill="#111827" stroke="#1F2937"/>
    <rect x="138" y="198" width="204" height="54" rx="12" fill="#111827" stroke="#1F2937"/>
    <circle cx="168" cy="225" r="14" fill="#0EA5E9"/>
    <path d="M164 225.5L167.5 229L173.5 222" stroke="white" stroke-width="2.5" stroke-linecap="round" stroke-linejoin="round"/>
    <rect x="198" y="214" width="128" height="12" rx="6" fill="#1F2937"/>
    <rect x="198" y="234" width="92" height="12" rx="6" fill="#1F2937" opacity="0.7"/>
  </g>
  <path d="M120 122C182 126 216 160 230 210C244 260 288 288 346 266" stroke="url(#grad1)" stroke-width="8" stroke-linecap="round" stroke-linejoin="round" opacity="0.5"/>
  <circle cx="120" cy="122" r="10" fill="#22D3EE"/>
  <circle cx="230" cy="210" r="10" fill="#8B5CF6"/>
  <circle cx="346" cy="266" r="12" fill="#F472B6"/>
</svg>
