<svg width="480" height="380" viewBox="0 0 480 380" fill="none" xmlns="http://www.w3.org/2000/svg">
  <defs>
    <linearGradient id="srv1" x1="70" y1="60" x2="430" y2="320" gradientUnits="userSpaceOnUse">
      <stop stop-color="#34D399" stop-opacity="0.95"/>
      <stop offset="1" stop-color="#22D3EE" stop-opacity="0.9"/>
    </linearGradient>
    <linearGradient id="srv2" x1="120" y1="40" x2="360" y2="340" gradientUnits="userSpaceOnUse">
      <stop stop-color="#0F172A"/>
      <stop offset="1" stop-color="#0B1224"/>
    </linearGradient>
    <filter id="soft" x="0" y="0" width="480" height="380" filterUnits="userSpaceOnUse" color-interpolation-filters="sRGB">
      <feGaussianBlur stdDeviation="18" flood-color="#34D399" flood-opacity="0.24" result="shadow"/>
      <feComposite in="shadow" in2="SourceGraphic" operator="over"/>
    </filter>
  </defs>
  <rect x="16" y="16" width="448" height="348" rx="32" fill="#0B1224"/>
  <rect x="32" y="32" width="416" height="316" rx="26" fill="#0F172A" stroke="#1F2937"/>
  <circle cx="120" cy="100" r="58" fill="#111827" stroke="#34D399" stroke-width="10" opacity="0.35"/>
  <circle cx="360" cy="110" r="50" fill="#0B1224" stroke="#22D3EE" stroke-width="10" opacity="0.4"/>
  <g filter="url(#soft)">
    <rect x="96" y="126" width="288" height="164" rx="22" fill="#0F172A" stroke="#1F2937" stroke-width="2"/>
    <rect x="118" y="150" width="120" height="18" rx="9" fill="#111827" stroke="#1F2937"/>
    <rect x="118" y="180" width="244" height="14" rx="7" fill="#111827"/>
    <rect x="118" y="206" width="244" height="14" rx="7" fill="#111827" opacity="0.8"/>
    <rect x="118" y="232" width="244" height="14" rx="7" fill="#111827" opacity="0.7"/>
    <rect x="118" y="258" width="110" height="14" rx="7" fill="#22D3EE"/>
    <rect x="242" y="258" width="120" height="14" rx="7" fill="#34D399"/>
  </g>
  <path d="M134 102C182 122 210 164 222 212C234 258 274 290 332 286C360 284 388 272 406 252" stroke="url(#srv1)" stroke-width="8" stroke-linecap="round" opacity="0.6"/>
  <circle cx="134" cy="102" r="11" fill="#22D3EE"/>
  <circle cx="222" cy="212" r="11" fill="#34D399"/>
  <circle cx="332" cy="286" r="12" fill="#22D3EE"/>
  <rect x="244" y="86" width="92" height="36" rx="12" fill="#111827" stroke="#1F2937"/>
  <path d="M264 104H282" stroke="#34D399" stroke-width="3" stroke-linecap="round"/>
  <path d="M292 104H316" stroke="#34D399" stroke-width="3" stroke-linecap="round"/>
  <path d="M272 114H304" stroke="#22D3EE" stroke-width="3" stroke-linecap="round"/>
</svg>
