<svg width="640" height="360" viewBox="0 0 640 360" fill="none" xmlns="http://www.w3.org/2000/svg">
  <defs>
    <linearGradient id="gradServers" x1="0" y1="0" x2="1" y2="1">
      <stop stop-color="#22C55E" offset="0%" stop-opacity="0.9"/>
      <stop stop-color="#0F172A" offset="100%" stop-opacity="0.7"/>
    </linearGradient>
    <linearGradient id="gradAction" x1="0" y1="0" x2="1" y2="0">
      <stop stop-color="#86EFAC" offset="0%"/>
      <stop stop-color="#22D3EE" offset="100%"/>
    </linearGradient>
  </defs>
  <rect width="640" height="360" rx="28" fill="#0A0F14"/>
  <rect x="20" y="26" width="600" height="308" rx="26" fill="#0C1320" stroke="#10B981" stroke-opacity="0.2"/>
  <rect x="48" y="60" width="130" height="240" rx="22" fill="#0B1524" stroke="#22C55E" stroke-opacity="0.25"/>
  <rect x="64" y="86" width="98" height="26" rx="10" fill="#111827"/>
  <rect x="64" y="126" width="98" height="26" rx="10" fill="#111827"/>
  <rect x="64" y="166" width="98" height="26" rx="10" fill="#111827"/>
  <rect x="64" y="206" width="98" height="26" rx="10" fill="#111827"/>
  <rect x="64" y="246" width="98" height="26" rx="10" fill="#111827"/>
  <rect x="210" y="80" width="380" height="64" rx="16" fill="#0B1020" stroke="#22C55E" stroke-opacity="0.35"/>
  <rect x="230" y="98" width="170" height="28" rx="10" fill="#0EA5E9" fill-opacity="0.25"/>
  <rect x="414" y="98" width="140" height="28" rx="10" fill="#22C55E" fill-opacity="0.35"/>
  <rect x="210" y="164" width="380" height="130" rx="16" fill="#0D1424" stroke="#22C55E" stroke-opacity="0.35"/>
  <rect x="230" y="186" width="190" height="24" rx="9" fill="#111827"/>
  <rect x="230" y="220" width="230" height="24" rx="9" fill="#111827"/>
  <rect x="230" y="254" width="160" height="24" rx="9" fill="#111827"/>
  <rect x="470" y="190" width="96" height="64" rx="14" fill="#052E16" stroke="#22C55E" stroke-width="2"/>
  <path d="M498 228L520 206L542 228" stroke="#BBF7D0" stroke-width="7" stroke-linecap="round" stroke-linejoin="round"/>
  <rect x="470" y="268" width="96" height="20" rx="10" fill="url(#gradAction)"/>
  <rect x="230" y="220" width="140" height="24" rx="9" fill="url(#gradAction)" fill-opacity="0.7"/>
  <rect x="64" y="126" width="54" height="26" rx="10" fill="url(#gradAction)" fill-opacity="0.75"/>
</svg>
