<svg width="640" height="360" viewBox="0 0 640 360" fill="none" xmlns="http://www.w3.org/2000/svg">
  <defs>
    <linearGradient id="gradSettings" x1="0" y1="0" x2="1" y2="1">
      <stop stop-color="#8B5CF6" offset="0%" stop-opacity="0.9"/>
      <stop stop-color="#0F172A" offset="100%" stop-opacity="0.6"/>
    </linearGradient>
    <linearGradient id="gradToggle" x1="0" y1="0" x2="1" y2="0">
      <stop stop-color="#C084FC" offset="0%"/>
      <stop stop-color="#22D3EE" offset="100%"/>
    </linearGradient>
  </defs>
  <rect width="640" height="360" rx="28" fill="#0C0E17"/>
  <rect x="26" y="30" width="588" height="300" rx="26" fill="#0E1024" stroke="#C084FC" stroke-opacity="0.18"/>
  <rect x="58" y="66" width="524" height="80" rx="18" fill="#0F1426" stroke="#C084FC" stroke-opacity="0.35"/>
  <rect x="80" y="88" width="240" height="24" rx="10" fill="#111827"/>
  <rect x="340" y="88" width="120" height="24" rx="10" fill="#111827"/>
  <rect x="480" y="84" width="84" height="32" rx="16" fill="#111827" stroke="#C084FC" stroke-opacity="0.6"/>
  <rect x="488" y="92" width="40" height="16" rx="8" fill="#C084FC"/>
  <rect x="78" y="164" width="484" height="140" rx="20" fill="#0E1324" stroke="#C084FC" stroke-opacity="0.3"/>
  <rect x="102" y="188" width="220" height="22" rx="9" fill="#111827"/>
  <rect x="102" y="218" width="180" height="22" rx="9" fill="#111827"/>
  <rect x="102" y="248" width="160" height="22" rx="9" fill="#111827"/>
  <rect x="342" y="188" width="220" height="22" rx="11" fill="#111827"/>
  <rect x="342" y="218" width="180" height="22" rx="11" fill="#111827"/>
  <rect x="342" y="248" width="200" height="22" rx="11" fill="#111827"/>
  <rect x="524" y="188" width="18" height="22" rx="9" fill="#22D3EE"/>
  <rect x="524" y="218" width="18" height="22" rx="9" fill="#C084FC"/>
  <rect x="524" y="248" width="18" height="22" rx="9" fill="#22C55E"/>
  <circle cx="160" cy="188" r="12" fill="#22D3EE" fill-opacity="0.6"/>
  <circle cx="160" cy="218" r="12" fill="#22C55E" fill-opacity="0.6"/>
  <circle cx="160" cy="248" r="12" fill="#F472B6" fill-opacity="0.6"/>
  <rect x="354" y="90" width="20" height="20" rx="10" fill="#22C55E" fill-opacity="0.85"/>
  <rect x="394" y="90" width="20" height="20" rx="10" fill="#FBBF24" fill-opacity="0.85"/>
  <rect x="434" y="90" width="20" height="20" rx="10" fill="#F87171" fill-opacity="0.85"/>
  <rect x="200" y="292" width="240" height="12" rx="6" fill="#111827"/>
  <rect x="200" y="292" width="156" height="12" rx="6" fill="url(#gradToggle)"/>
</svg>
