<svg width="480" height="380" viewBox="0 0 480 380" fill="none" xmlns="http://www.w3.org/2000/svg">
  <defs>
    <linearGradient id="set1" x1="70" y1="60" x2="420" y2="320" gradientUnits="userSpaceOnUse">
      <stop stop-color="#A855F7" stop-opacity="0.95"/>
      <stop offset="1" stop-color="#60A5FA" stop-opacity="0.9"/>
    </linearGradient>
    <linearGradient id="set2" x1="120" y1="40" x2="360" y2="340" gradientUnits="userSpaceOnUse">
      <stop stop-color="#8B5CF6" stop-opacity="0.18"/>
      <stop offset="1" stop-color="#0B1224" stop-opacity="0"/>
    </linearGradient>
    <filter id="setShadow" x="0" y="0" width="480" height="380" filterUnits="userSpaceOnUse" color-interpolation-filters="sRGB">
      <feDropShadow dx="0" dy="16" stdDeviation="20" flood-color="#8B5CF6" flood-opacity="0.26"/>
    </filter>
  </defs>
  <rect x="16" y="16" width="448" height="348" rx="32" fill="#0B1224"/>
  <rect x="32" y="32" width="416" height="316" rx="26" fill="#0F172A" stroke="#1F2937"/>
  <circle cx="126" cy="110" r="58" fill="#0B1224" stroke="#8B5CF6" stroke-width="10" opacity="0.35"/>
  <circle cx="352" cy="96" r="46" fill="#0B1224" stroke="#60A5FA" stroke-width="9" opacity="0.4"/>
  <g filter="url(#setShadow)">
    <rect x="108" y="144" width="264" height="176" rx="24" fill="#0F172A" stroke="#1F2937" stroke-width="2"/>
    <rect x="132" y="168" width="196" height="18" rx="9" fill="#111827" stroke="#1F2937"/>
    <rect x="132" y="196" width="216" height="46" rx="12" fill="#111827" stroke="#1F2937"/>
    <circle cx="164" cy="220" r="14" fill="#8B5CF6"/>
    <path d="M160 219.5L164.5 224L170.5 215" stroke="white" stroke-width="2.5" stroke-linecap="round" stroke-linejoin="round"/>
    <rect x="194" y="206" width="122" height="10" rx="5" fill="#1F2937"/>
    <rect x="194" y="222" width="96" height="10" rx="5" fill="#1F2937" opacity="0.8"/>
    <rect x="132" y="254" width="216" height="12" rx="6" fill="#111827"/>
    <rect x="132" y="274" width="160" height="12" rx="6" fill="#111827" opacity="0.8"/>
    <rect x="132" y="294" width="122" height="12" rx="6" fill="#111827" opacity="0.7"/>
  </g>
  <path d="M132 112C180 134 210 170 226 214C240 252 270 278 314 286C346 292 380 288 412 270" stroke="url(#set1)" stroke-width="8" stroke-linecap="round" opacity="0.6"/>
  <circle cx="132" cy="112" r="11" fill="#8B5CF6"/>
  <circle cx="226" cy="214" r="11" fill="#60A5FA"/>
  <circle cx="314" cy="286" r="12" fill="#A855F7"/>
  <rect x="238" y="86" width="90" height="36" rx="12" fill="#0B1224" stroke="#1F2937"/>
  <path d="M258 104H278" stroke="#8B5CF6" stroke-width="3" stroke-linecap="round"/>
  <path d="M288 104H310" stroke="#60A5FA" stroke-width="3" stroke-linecap="round"/>
  <path d="M268 114H300" stroke="#8B5CF6" stroke-width="3" stroke-linecap="round"/>
</svg>
