<svg width="480" height="380" viewBox="0 0 480 380" fill="none" xmlns="http://www.w3.org/2000/svg">
  <defs>
    <linearGradient id="voc1" x1="80" y1="80" x2="420" y2="320" gradientUnits="userSpaceOnUse">
      <stop stop-color="#38BDF8" stop-opacity="0.95"/>
      <stop offset="1" stop-color="#F472B6" stop-opacity="0.9"/>
    </linearGradient>
    <linearGradient id="voc2" x1="120" y1="40" x2="360" y2="340" gradientUnits="userSpaceOnUse">
      <stop stop-color="#0EA5E9" stop-opacity="0.15"/>
      <stop offset="1" stop-color="#111827" stop-opacity="0"/>
    </linearGradient>
    <filter id="vocShadow" x="0" y="0" width="480" height="380" filterUnits="userSpaceOnUse" color-interpolation-filters="sRGB">
      <feDropShadow dx="0" dy="16" stdDeviation="20" flood-color="#38BDF8" flood-opacity="0.25"/>
    </filter>
  </defs>
  <rect x="16" y="16" width="448" height="348" rx="32" fill="#0B1224"/>
  <rect x="32" y="32" width="416" height="316" rx="26" fill="#0F172A" stroke="#1F2937"/>
  <circle cx="140" cy="110" r="58" fill="#0B1224" stroke="#38BDF8" stroke-width="9" opacity="0.35"/>
  <circle cx="340" cy="90" r="40" fill="#0B1224" stroke="#F472B6" stroke-width="9" opacity="0.4"/>
  <g filter="url(#vocShadow)">
    <rect x="106" y="142" width="268" height="180" rx="26" fill="#0F172A" stroke="#1F2937" stroke-width="2"/>
    <rect x="134" y="170" width="80" height="120" rx="18" fill="#0EA5E9" opacity="0.9"/>
    <rect x="230" y="170" width="52" height="120" rx="12" fill="#38BDF8" opacity="0.7"/>
    <rect x="300" y="170" width="46" height="120" rx="12" fill="#F472B6" opacity="0.85"/>
    <rect x="134" y="306" width="80" height="6" rx="3" fill="#38BDF8" opacity="0.7"/>
    <rect x="230" y="306" width="52" height="6" rx="3" fill="#38BDF8" opacity="0.5"/>
    <rect x="300" y="306" width="46" height="6" rx="3" fill="#F472B6" opacity="0.5"/>
  </g>
  <path d="M150 120C210 128 240 158 254 196C266 226 290 252 332 260C354 264 380 262 404 252" stroke="url(#voc1)" stroke-width="8" stroke-linecap="round" opacity="0.65"/>
  <circle cx="150" cy="120" r="11" fill="#38BDF8"/>
  <circle cx="254" cy="196" r="10" fill="#22D3EE"/>
  <circle cx="332" cy="260" r="12" fill="#F472B6"/>
  <rect x="214" y="88" width="70" height="36" rx="12" fill="#0B1224" stroke="#1F2937"/>
  <path d="M228 106H244" stroke="#38BDF8" stroke-width="3" stroke-linecap="round"/>
  <path d="M252 106H270" stroke="#F472B6" stroke-width="3" stroke-linecap="round"/>
  <path d="M234 116H264" stroke="#38BDF8" stroke-width="3" stroke-linecap="round"/>
</svg>
