<svg width="640" height="360" viewBox="0 0 640 360" fill="none" xmlns="http://www.w3.org/2000/svg">
  <defs>
    <linearGradient id="gradVoice" x1="0" y1="0" x2="1" y2="1">
      <stop stop-color="#22D3EE" stop-opacity="0.85" offset="0%"/>
      <stop stop-color="#0F172A" stop-opacity="0.7" offset="100%"/>
    </linearGradient>
    <linearGradient id="gradWave" x1="0" y1="0" x2="1" y2="0">
      <stop stop-color="#60A5FA" offset="0%"/>
      <stop stop-color="#C084FC" offset="100%"/>
    </linearGradient>
  </defs>
  <rect width="640" height="360" rx="28" fill="#0B0E17"/>
  <rect x="22" y="28" width="596" height="304" rx="26" fill="#0E1222" stroke="#22D3EE" stroke-opacity="0.18"/>
  <rect x="48" y="60" width="544" height="68" rx="18" fill="#0B1020" stroke="#22D3EE" stroke-opacity="0.35"/>
  <rect x="70" y="80" width="180" height="28" rx="12" fill="#0EA5E9" fill-opacity="0.25"/>
  <rect x="266" y="80" width="140" height="28" rx="12" fill="#111827"/>
  <rect x="422" y="80" width="120" height="28" rx="12" fill="#111827"/>
  <rect x="90" y="156" width="460" height="128" rx="20" fill="#0D1424" stroke="#22D3EE" stroke-opacity="0.4"/>
  <rect x="120" y="186" width="90" height="88" rx="18" fill="#0EA5E9" fill-opacity="0.2" stroke="#22D3EE" stroke-opacity="0.7" stroke-width="2"/>
  <rect x="240" y="186" width="90" height="88" rx="18" fill="#0B1020" stroke="#22D3EE" stroke-opacity="0.35" stroke-width="2"/>
  <rect x="360" y="186" width="90" height="88" rx="18" fill="#0EA5E9" fill-opacity="0.08" stroke="#22D3EE" stroke-opacity="0.25" stroke-width="2"/>
  <rect x="480" y="186" width="50" height="88" rx="14" fill="#111827" stroke="#22D3EE" stroke-opacity="0.35" stroke-width="2"/>
  <path d="M158 214V246" stroke="#CFFAFE" stroke-width="10" stroke-linecap="round"/>
  <path d="M278 214V246" stroke="#93C5FD" stroke-width="10" stroke-linecap="round"/>
  <path d="M398 214V246" stroke="#C084FC" stroke-width="10" stroke-linecap="round"/>
  <path d="M504 208V252" stroke="#22D3EE" stroke-width="10" stroke-linecap="round"/>
  <path d="M120 286H474" stroke="url(#gradWave)" stroke-width="5" stroke-linecap="round" stroke-dasharray="8 10"/>
  <rect x="180" y="306" width="280" height="10" rx="5" fill="#0EA5E9" fill-opacity="0.25"/>
  <rect x="180" y="306" width="168" height="10" rx="5" fill="url(#gradWave)"/>
  <rect x="520" y="68" width="34" height="34" rx="12" fill="#052E16" stroke="#22C55E" stroke-width="2"/>
  <path d="M530 85L537 92L552 77" stroke="#86EFAC" stroke-width="6" stroke-linecap="round" stroke-linejoin="round"/>
</svg>
